<svg width="85" height="41" fill="none" xmlns="http://www.w3.org/2000/svg"><path d="M.5 24.427h2.518v12.347H.5V24.427zm3.978 8.116a4.482 4.482 0 114.483 4.474 4.431 4.431 0 01-4.483-4.474zm6.43 0a1.947 1.947 0 10-1.947 1.998 1.895 1.895 0 001.947-1.998z" fill="#252525"/><path d="M23.566 28.313v8.041c0 2.846-2.224 4.046-4.474 4.046a4.324 4.324 0 01-4.004-2.048l2.166-1.25a1.93 1.93 0 001.889 1.065 1.678 1.678 0 001.947-1.813v-.78a2.988 2.988 0 01-2.468 1.1 4.298 4.298 0 010-8.596 3.013 3.013 0 012.468 1.1v-.84l2.476-.025zm-2.476 4.062a2.048 2.048 0 10-2.048 1.965 1.913 1.913 0 002.048-1.965zm3.928.168a4.482 4.482 0 114.483 4.474 4.432 4.432 0 01-4.483-4.474zm6.43 0a1.947 1.947 0 10-1.947 1.998 1.895 1.895 0 001.93-1.998h.017zm3.702-6.496a1.528 1.528 0 111.527 1.527 1.536 1.536 0 01-1.527-1.527zm.26 2.266h2.518v8.461H35.41v-8.461zm13.497 4.231a4.248 4.248 0 01-4.037 4.474 3.215 3.215 0 01-2.519-1.033v4.197h-2.518V28.313h2.518v.798a3.215 3.215 0 012.519-1.033 4.246 4.246 0 014.037 4.466zm-2.518 0a2.014 2.014 0 10-2.065 2.065 1.93 1.93 0 002.048-2.065h.017zm10.358 1.695c0 1.947-1.679 2.778-3.525 2.778a3.71 3.71 0 01-3.635-2.014l2.2-1.251a1.393 1.393 0 001.435.999c.612 0 .915-.193.915-.529 0-.932-4.197-.436-4.197-3.357 0-1.847 1.56-2.779 3.357-2.779a3.718 3.718 0 013.307 1.813l-2.207 1.159a1.25 1.25 0 00-1.142-.747c-.436 0-.705.167-.705.478.034.965 4.197.319 4.197 3.45zm9.266-5.926v8.46h-2.518v-.788a2.897 2.897 0 01-2.417 1.032c-1.679 0-3.165-1.217-3.165-3.508v-5.196h2.519v4.826a1.392 1.392 0 001.519 1.537c.923 0 1.57-.538 1.57-1.738v-4.625h2.492zm14.556 3.274v5.187H78.05v-4.97c0-.838-.411-1.392-1.217-1.392s-1.326.596-1.326 1.594v4.768h-2.518v-4.97c0-.838-.403-1.392-1.217-1.392-.814 0-1.318.596-1.318 1.594v4.768h-2.518v-8.46h2.518v.78a2.601 2.601 0 012.266-1.016 2.518 2.518 0 012.216 1.116 2.787 2.787 0 012.451-1.116c1.914 0 3.181 1.393 3.181 3.509zm2.148-3.324a1.88 1.88 0 100-3.76 1.88 1.88 0 000 3.76zm-53.72-10.241a8.805 8.805 0 100-17.61 8.805 8.805 0 000 17.61zm19.683 0a8.805 8.805 0 100-17.61 8.805 8.805 0 000 17.61zM18.119.412H.517v17.602h17.602V.412z" fill="#252525"/></svg>