<svg width="181" height="36" fill="none" xmlns="http://www.w3.org/2000/svg"><path d="M27.132 16.016a4.875 4.875 0 00-1.395 3.905l-.024-.024a5.792 5.792 0 01-6.258 6.259l.024.024a4.904 4.904 0 104.428 4.424l.025.024a5.79 5.79 0 016.259-6.259l-.026-.024a4.895 4.895 0 10-3.029-8.329h-.004z" fill="#252525"/><path d="M17.296 23.036l-.026-.024a4.842 4.842 0 005.303-5.299l.026.024a5.793 5.793 0 016.258-6.258l-.025-.024a4.903 4.903 0 10-4.424-4.425l-.024-.025a5.792 5.792 0 01-6.259 6.259l.024.025a4.842 4.842 0 00-5.303 5.299l-.024-.024a5.795 5.795 0 01-6.258 6.259l.024.023a4.903 4.903 0 104.424 4.424l.025.024a5.791 5.791 0 016.259-6.258z" fill="#252525"/><path d="M8.36 20.36a4.87 4.87 0 001.393-3.905l.026.024a5.792 5.792 0 016.26-6.259l-.024-.024a4.903 4.903 0 10-4.425-4.424l-.024-.024a5.791 5.791 0 01-6.258 6.259l.024.024a4.894 4.894 0 103.03 8.33H8.36zM49.663 7.062h3.96v19.27h-3.96V7.062zm6.202 12.671a6.997 6.997 0 116.996 6.968 6.916 6.916 0 01-6.996-6.968zm10.032 0a3.039 3.039 0 00-5.213-2.034 3.037 3.037 0 002.177 5.155 2.963 2.963 0 003.036-3.121zm19.743-6.6v12.534c0 4.434-3.459 6.309-6.97 6.309a6.75 6.75 0 01-6.255-3.2l3.378-1.953a3.017 3.017 0 003.01 1.662 2.63 2.63 0 002.982-2.824v-1.206a4.689 4.689 0 01-3.854 1.716 6.708 6.708 0 010-13.41 4.69 4.69 0 013.854 1.716v-1.346l3.855.002zm-3.853 6.335a3.2 3.2 0 10-3.194 3.067 2.988 2.988 0 003.194-3.067zm6.095.265a6.995 6.995 0 116.996 6.968 6.915 6.915 0 01-6.996-6.968zm10.032 0a3.038 3.038 0 10-3.035 3.121 2.962 2.962 0 003.035-3.121zm5.807-10.137a2.377 2.377 0 014.707-.464 2.38 2.38 0 01-1.011 2.44c-.39.26-.85.4-1.32.4a2.399 2.399 0 01-2.376-2.376zm.4 3.537h3.962v13.2h-3.967l.005-13.2zm21.06 6.6a6.619 6.619 0 01-1.705 4.796 6.638 6.638 0 01-4.604 2.172 4.952 4.952 0 01-3.932-1.61v6.521h-3.96V13.133h3.96v1.24a4.956 4.956 0 013.932-1.609 6.625 6.625 0 016.309 6.97zm-3.96 0a3.133 3.133 0 00-1.993-2.845 3.138 3.138 0 00-3.396.731 3.14 3.14 0 002.249 5.334 3.01 3.01 0 003.14-3.22zm16.18 2.639c0 3.036-2.638 4.329-5.489 4.329a5.777 5.777 0 01-5.676-3.141l3.431-1.954a2.171 2.171 0 002.24 1.557c.949 0 1.425-.29 1.425-.817 0-1.453-6.495-.686-6.495-5.253 0-2.879 2.43-4.33 5.175-4.33a5.769 5.769 0 015.147 2.825l-3.379 1.821a1.917 1.917 0 00-1.768-1.161c-.687 0-1.109.266-1.109.738.005 1.506 6.498.502 6.498 5.386zm14.466-9.239v13.2h-3.96v-1.241a4.523 4.523 0 01-3.774 1.61c-2.666 0-4.933-1.9-4.933-5.466v-8.103h3.96v7.523a2.18 2.18 0 001.371 2.254c.293.115.609.165.925.146 1.452 0 2.455-.844 2.455-2.719v-7.2l3.956-.004zm22.706 5.095v8.104h-3.96v-7.761c0-1.32-.633-2.164-1.9-2.164-1.32 0-2.06.924-2.06 2.481v7.444h-3.959v-7.761c0-1.32-.633-2.164-1.901-2.164-1.32 0-2.059.924-2.059 2.481v7.444h-3.96v-13.2h3.96v1.213a4.061 4.061 0 013.538-1.582 3.927 3.927 0 013.457 1.741 4.353 4.353 0 013.828-1.741c3.031.001 5.016 2.165 5.016 5.465zm3.35-5.176a2.939 2.939 0 10-.001-5.877 2.939 2.939 0 00.001 5.877z" fill="#252525"/></svg>