<svg width="175" height="36" fill="none" xmlns="http://www.w3.org/2000/svg"><path d="M56.069 28.876a3.926 3.926 0 01-2.475-.712 2.315 2.315 0 01-.934-1.941v-13.74a.387.387 0 01.43-.43h2.49c.282 0 .415.149.415.43v12.673c0 .563.252.845.77.845.22.008.44-.016.653-.075.296 0 .46.09.474.356l.222 1.853a.386.386 0 01-.355.46 5.584 5.584 0 01-1.69.28zm14.006-1.586a6.98 6.98 0 01-8.893 0 5.929 5.929 0 010-8.344 7.01 7.01 0 018.893 0 6.017 6.017 0 010 8.33v.014zm-6.551-1.956a3.157 3.157 0 004.239 0 3.319 3.319 0 000-4.357 3.157 3.157 0 00-4.24 0 3.32 3.32 0 000 4.357zM85.46 17.73c.281 0 .415.148.415.43v10.627a4.83 4.83 0 01-1.646 3.81 6.225 6.225 0 01-4.313 1.481 6.937 6.937 0 01-4.016-1.111 4.443 4.443 0 01-1.942-2.965c0-.296 0-.43.4-.43h2.49a.549.549 0 01.49.341c.161.45.483.825.904 1.053a3.466 3.466 0 001.66.385 2.624 2.624 0 001.912-.682 2.519 2.519 0 00.696-1.852v-.934a4.965 4.965 0 01-3.083.963 5.752 5.752 0 01-4.209-1.615 5.929 5.929 0 010-8.24 5.797 5.797 0 014.21-1.602 4.98 4.98 0 013.156 1.023v-.237a.386.386 0 01.415-.43l2.46-.015zm-5.751 8.478a2.607 2.607 0 002.03-.874 3.63 3.63 0 000-4.447 2.595 2.595 0 00-2.015-.86 2.666 2.666 0 00-2.06.875 3.142 3.142 0 00-.8 2.223 3.202 3.202 0 00.785 2.209 2.684 2.684 0 002.06.874zm18.956 1.082a7.01 7.01 0 01-8.893 0 6.032 6.032 0 010-8.345 7.025 7.025 0 018.893 0 6.017 6.017 0 010 8.33v.015zM92.1 25.334a2.962 2.962 0 002.135.815 2.964 2.964 0 002.12-.816 3.364 3.364 0 000-4.357 2.962 2.962 0 00-2.12-.815 2.966 2.966 0 00-2.135.815 3.365 3.365 0 000 4.358zm13.591-10.124a2.15 2.15 0 01-2.831 0 1.793 1.793 0 010-2.608 2.193 2.193 0 012.831 0c.177.168.319.37.416.594a1.806 1.806 0 010 1.42 1.807 1.807 0 01-.416.595zm.311 13.666a3.986 3.986 0 01-2.475-.712 2.338 2.338 0 01-.919-1.942V18.16a.39.39 0 01.11-.32.383.383 0 01.32-.11h2.49c.281 0 .415.149.415.43v6.996c0 .563.252.845.756.845.224.008.449-.017.667-.075.296 0 .459.09.474.356l.222 1.853c.011.054.01.11-.003.163a.394.394 0 01-.353.296 5.608 5.608 0 01-1.704.282zm11.219-11.501a5.811 5.811 0 014.239 1.6 6.077 6.077 0 010 8.285 5.752 5.752 0 01-4.239 1.616 5.098 5.098 0 01-3.097-.964v5.35c0 .282-.149.416-.43.416h-2.49a.36.36 0 01-.317-.098.353.353 0 01-.098-.317V21.109a.774.774 0 00-.52-.843.774.774 0 00-.355-.031h-.489c-.326 0-.489-.119-.489-.356V18.13a.478.478 0 01.341-.489 4.449 4.449 0 011.601-.266 2.743 2.743 0 012.682 1.482 5.008 5.008 0 013.661-1.482zm-2.312 7.959a2.827 2.827 0 002.046.873 2.834 2.834 0 002.045-.873 3.2 3.2 0 00.815-2.268 3.155 3.155 0 00-.815-2.268 2.831 2.831 0 00-4.091 0c-.539.63-.82 1.44-.785 2.268-.03.827.25 1.636.785 2.268zm15.177 3.542a7.144 7.144 0 01-3.809-.919 3.623 3.623 0 01-1.719-2.623c0-.297.104-.445.43-.445h2.178a.563.563 0 01.49.326c.311.8 1.126 1.2 2.43 1.2.455.021.908-.07 1.319-.266a.862.862 0 00.504-.727c0-.385-.237-.652-.711-.83a8.024 8.024 0 00-1.734-.37 16.484 16.484 0 01-2.075-.37 3.402 3.402 0 01-1.734-.994 3.163 3.163 0 01-.68-2.435 3.168 3.168 0 011.317-2.16 6.107 6.107 0 013.587-.948 6.554 6.554 0 013.498.875 3.31 3.31 0 011.63 2.327c0 .296-.134.444-.4.444h-2.194a.457.457 0 01-.445-.266 1.48 1.48 0 00-.77-.786 2.612 2.612 0 00-1.275-.296 2.582 2.582 0 00-1.26.252.738.738 0 00-.474.681.953.953 0 00.711.875c.57.214 1.161.364 1.764.444.693.092 1.381.22 2.06.386.665.15 1.269.496 1.734.993a2.795 2.795 0 01.727 2.03 2.97 2.97 0 01-1.379 2.579 6.475 6.475 0 01-3.72 1.023zm20.765-.741a.4.4 0 01-.341.46 5.724 5.724 0 01-1.675.281 3.289 3.289 0 01-2.964-1.29 5.364 5.364 0 01-3.779 1.29 4.592 4.592 0 01-3.469-1.349 4.87 4.87 0 01-1.319-3.572V18.16c0-.281.134-.43.415-.43h2.49c.282 0 .415.149.415.43v5.35c-.026.667.2 1.32.638 1.824a2.222 2.222 0 001.704.696 2.461 2.461 0 001.779-.652 2.374 2.374 0 00.667-1.764V18.16c0-.281.133-.43.415-.43h2.519c.282 0 .415.149.415.43v6.981c0 .578.252.86.741.86.23.009.46-.016.682-.074a.384.384 0 01.331.06.406.406 0 01.114.13.415.415 0 01.044.165l.178 1.853zm23.551 0a.37.37 0 01-.341.46 5.745 5.745 0 01-1.704.28 3.96 3.96 0 01-2.476-.71 2.313 2.313 0 01-.993-1.942V22.74a2.62 2.62 0 00-.622-1.823 2.106 2.106 0 00-1.66-.697 1.86 1.86 0 00-1.482.652 2.633 2.633 0 00-.563 1.75v5.468c0 .282-.134.43-.415.43h-2.505a.383.383 0 01-.32-.11.378.378 0 01-.11-.32v-5.35a2.74 2.74 0 00-.578-1.823 1.931 1.931 0 00-1.482-.697 2.15 2.15 0 00-1.631.652 2.451 2.451 0 00-.607 1.75v5.468a.39.39 0 01-.11.32.384.384 0 01-.32.11h-2.416c-.281 0-.415-.148-.415-.43v-6.98a.748.748 0 00-.031-.355.763.763 0 00-.843-.52h-.489c-.327 0-.49-.119-.49-.356V18.13a.48.48 0 01.341-.489 4.45 4.45 0 011.601-.267 2.788 2.788 0 012.638 1.364 5.017 5.017 0 013.765-1.364 4.251 4.251 0 013.512 1.571 4.897 4.897 0 013.884-1.57 4.68 4.68 0 013.512 1.348 4.825 4.825 0 011.319 3.572v2.86c0 .564.252.845.727.845.229.011.459-.014.681-.074.307 0 .47.119.49.356l.133 1.853zM.608 15.804a20.29 20.29 0 0139.38 0h-1.779c-3-.045-5.939.852-8.403 2.564a4.213 4.213 0 01-.445.281h-.208a4.226 4.226 0 01-.444-.281 15.074 15.074 0 00-16.822 0 4.213 4.213 0 01-.445.281h-.207a4.226 4.226 0 01-.445-.281 14.363 14.363 0 00-8.404-2.564H.608zm34.4 9.292a4.994 4.994 0 013.201-1.052h2.386v-4.757H38.21a9.456 9.456 0 00-5.676 1.808 5.395 5.395 0 01-6.403 0 10.078 10.078 0 00-11.516 0 5.395 5.395 0 01-6.403 0 9.455 9.455 0 00-5.75-1.808H0v4.757h2.386a4.995 4.995 0 013.202 1.052 10.048 10.048 0 0011.5 0 5.025 5.025 0 013.202-1.052 4.965 4.965 0 013.202 1.052 10.078 10.078 0 0011.516 0zm0 8.508a4.994 4.994 0 013.201-1.052h2.386v-4.758H38.21a9.456 9.456 0 00-5.676 1.808 5.395 5.395 0 01-6.403 0 10.079 10.079 0 00-11.516 0 5.395 5.395 0 01-6.403 0 9.456 9.456 0 00-5.75-1.808H0v4.758h2.386a4.995 4.995 0 013.202 1.052 10.048 10.048 0 0011.5 0 5.025 5.025 0 013.202-1.052 4.965 4.965 0 013.202 1.052 10.078 10.078 0 0011.516 0z" fill="#252525"/></svg>