<svg width="152" height="35" fill="none" xmlns="http://www.w3.org/2000/svg"><path d="M0 34.612h34.2V.412H0v34.2zm27.617-20.39h-7.226V6.994h7.226v7.226zM6.581 6.994h7.231v13.808h13.805v7.226H6.581V6.995zM56.471.412a17.1 17.1 0 1017.1 17.1 17.12 17.12 0 00-17.1-17.1zm0 27.617a10.517 10.517 0 1110.517-10.517A10.533 10.533 0 0156.471 28.03zM134.763.412a17.099 17.099 0 00-12.094 29.191 17.103 17.103 0 0018.636 3.708 17.102 17.102 0 0010.556-15.799 17.12 17.12 0 00-17.098-17.1zm0 27.617a10.52 10.52 0 01-9.718-6.491 10.517 10.517 0 1120.234-4.026 10.53 10.53 0 01-3.086 7.432 10.527 10.527 0 01-7.43 3.085zM95.616.412a17.1 17.1 0 1017.1 17.1 17.121 17.121 0 00-17.1-17.1zm0 27.617a10.518 10.518 0 119.984-13.808h-9.984v6.582h9.984a10.537 10.537 0 01-9.984 7.226z" fill="#252525"/></svg>