<svg width="151" height="36" fill="none" xmlns="http://www.w3.org/2000/svg"><path d="M42.642 11.111h3.803v15.403h-3.803V11.11zm5.32 9.609c0-3.815 2.37-6.102 5.923-6.102 3.555 0 5.925 2.287 5.925 6.102 0 3.815-2.287 6.126-5.925 6.126-3.637 0-5.924-2.228-5.924-6.126zm8.08 0c0-2.097-.818-3.33-2.121-3.33s-2.109 1.185-2.109 3.33.806 3.317 2.109 3.317 2.145-1.172 2.145-3.305l-.024-.012zm5.284 6.588H65a1.965 1.965 0 002.062 1.184c1.457 0 2.215-.782 2.215-1.943v-2.132h.012a3.638 3.638 0 01-3.554 2.073c-2.785 0-4.633-2.12-4.633-5.77 0-3.65 1.765-5.924 4.74-5.924a3.637 3.637 0 013.554 2.24h-.107V14.89h3.768v11.54c0 2.784-2.465 4.526-6.09 4.526-3.294-.012-5.403-1.517-5.616-3.638l-.024-.011zm7.962-6.588c0-1.86-.853-3.033-2.204-3.033-1.35 0-2.18 1.185-2.18 3.033 0 1.848.818 2.938 2.18 2.938 1.363 0 2.204-1.007 2.204-2.938zm5.273 0c0-3.815 2.37-6.102 5.924-6.102 3.554 0 5.924 2.287 5.924 6.102 0 3.815-2.299 6.126-5.924 6.126-3.626 0-5.9-2.228-5.9-6.126h-.024zm8.08 0c0-2.097-.83-3.33-2.12-3.33-1.292 0-2.11 1.185-2.11 3.33s.806 3.317 2.11 3.317c1.302 0 2.144-1.172 2.144-3.305l-.024-.012zm5.308-8.637a1.942 1.942 0 111.943 1.86 1.873 1.873 0 01-1.92-1.848l-.023-.012zm0 2.796h3.85V26.56h-3.79l-.06-11.682zm17.701 5.841c0 3.803-1.706 6.007-4.609 6.007a3.638 3.638 0 01-3.554-2.168h-.071v5.758h-3.804V14.914h3.78V17h.071a3.661 3.661 0 013.554-2.252c2.986-.023 4.704 2.169 4.704 5.984l-.071-.012zm-3.874 0c0-1.848-.865-3.045-2.204-3.045-1.339 0-2.18 1.185-2.192 3.045-.012 1.86.853 3.033 2.192 3.033 1.339 0 2.275-1.102 2.275-3.021l-.071-.012zm10.367-6.114c3.187 0 5.166 1.505 5.189 3.922h-3.471c0-.841-.699-1.362-1.742-1.362-1.042 0-1.54.402-1.54 1.007 0 .604.438.793 1.315.971l2.441.498c2.369.497 3.317 1.445 3.317 3.21 0 2.37-2.192 3.982-5.45 3.982s-5.379-1.564-5.533-3.946h3.685c.106.865.794 1.375 1.907 1.375 1.114 0 1.635-.356 1.635-.984s-.355-.734-1.267-.924l-2.204-.462c-2.287-.486-3.483-1.683-3.483-3.472.071-2.322 2.061-3.803 5.272-3.803l-.071-.012zm18.246 11.943h-3.685v-2.192h-.071a3.34 3.34 0 01-3.4 2.429 4.06 4.06 0 01-3.076-1.26 4.057 4.057 0 01-1.107-3.135v-7.5h3.804v6.682c0 1.374.722 2.12 1.907 2.12a1.947 1.947 0 001.853-1.404 1.97 1.97 0 00.055-.823v-6.575h3.791l-.071 11.658zm1.836-11.67h3.697v2.251h.083a3.389 3.389 0 013.329-2.464 3.037 3.037 0 013.247 2.476h.166a3.553 3.553 0 013.554-2.476 3.693 3.693 0 013.617 2.439c.178.49.249 1.01.21 1.53v7.926h-3.827v-6.955c0-1.185-.557-1.848-1.635-1.848a1.66 1.66 0 00-1.671 1.884v6.92h-3.625V19.57c0-1.185-.581-1.813-1.623-1.813a1.696 1.696 0 00-1.695 1.908v6.895h-3.803l-.024-11.682zm-97.107-2.76a11.706 11.706 0 00-20.332-7.915H0v31.208h31.22V20.827a11.693 11.693 0 003.898-8.708zm-6.007 0a5.712 5.712 0 01-9.745 4.054 5.71 5.71 0 119.745-4.054zm-3.898 17.286H6.007V10.211h5.853a11.41 11.41 0 00-.178 1.908A11.73 11.73 0 0023.4 23.837a11.455 11.455 0 001.813-.155v5.723z" fill="#252525"/></svg>