<svg width="151" height="37" fill="none" xmlns="http://www.w3.org/2000/svg"><path fill-rule="evenodd" clip-rule="evenodd" d="M20.055.45l-.022-.038h-8.94L.5 18.57l7.271 12.723.009-.016 2.749 4.761 21.021.094 7.383-12.658h-.05l2.728-4.723L31.18.498 20.055.45zm6.916 12.109h.056L21.771 3.43l7.68.033 8.73 15.279-2.732 4.733-7.161.004 2.497-4.325-3.814-6.596zm-8.737-9.173l3.584 6.2h-4.962L8.36 24.316l-.58 1.001-3.847-6.733 8.866-15.2h5.434zm-3.446 15.737l3.786-6.564h4.963l3.814 6.597-2.498 4.326-7.546.004-2.518-4.363zm-5.292 9.179l1.44-2.497 2.141-3.7 2.514 4.355 7.545-.004-.012.021 10.608.013-3.885 6.661-17.597-.079-2.754-4.77z" fill="#252525"/><path d="M95.765 11.293a1.851 1.851 0 001.845-1.866c0-1.04-.827-1.846-1.845-1.846-1.04 0-1.867.806-1.867 1.846 0 1.039.828 1.866 1.867 1.866zm-1.655 12.26h3.288V12.949H94.11v10.606zm5.202 5.092h3.224v-6.152c.615.806 2.015 1.358 3.479 1.358 3.161 0 5.07-2.418 4.985-5.77-.085-3.415-2.058-5.473-5.006-5.473-1.506 0-2.927.658-3.521 1.634l-.17-1.294h-2.991v15.697zM102.6 18.25c0-1.591 1.061-2.652 2.588-2.652 1.548 0 2.524 1.082 2.524 2.652s-.976 2.651-2.524 2.651c-1.527 0-2.588-1.06-2.588-2.651zm8.748 1.952c.085 2.143 1.783 3.628 4.455 3.628 2.566 0 4.349-1.358 4.349-3.543 0-1.57-.934-2.609-2.674-3.033l-1.887-.467c-.679-.17-1.104-.34-1.104-.89 0-.552.446-.913 1.104-.913.742 0 1.23.488 1.208 1.21h2.949c-.084-2.207-1.761-3.586-4.094-3.586-2.355 0-4.115 1.4-4.115 3.522 0 1.42.785 2.588 2.885 3.14l1.867.487c.551.148.784.403.784.763 0 .53-.488.87-1.314.87-.955 0-1.464-.445-1.464-1.188h-2.949zm13.804 3.628c1.293 0 2.587-.594 3.245-1.464l.212 1.188h3.076V12.948h-3.267v5.515c0 1.59-.466 2.46-1.973 2.46-1.167 0-1.93-.53-1.93-2.503v-5.472h-3.267v6.66c0 2.525 1.4 4.221 3.904 4.221zm11.713-.276v-5.791c0-1.782.954-2.291 1.888-2.291 1.04 0 1.719.636 1.719 1.951v6.13h3.223v-5.79c0-1.803.933-2.312 1.867-2.312 1.04 0 1.74.636 1.74 1.972v6.13h3.181v-6.936c0-2.418-1.273-4.03-4.009-4.03-1.527 0-2.779.742-3.33 1.888-.637-1.146-1.739-1.888-3.5-1.888-1.167 0-2.249.53-2.885 1.379l-.127-1.018h-3.055v10.606h3.288zM50.963 7.858h-3.479v15.697h9.63V20.48h-6.151V7.858zm6.484 10.373c0 3.351 2.248 5.579 5.642 5.579 3.373 0 5.621-2.228 5.621-5.579 0-3.352-2.248-5.6-5.621-5.6-3.394 0-5.642 2.248-5.642 5.6zm3.287-.021c0-1.591.934-2.652 2.355-2.652 1.4 0 2.333 1.06 2.333 2.652 0 1.612-.933 2.672-2.333 2.672-1.421 0-2.355-1.06-2.355-2.672zm8.502-.149c0 3.204 2.079 5.367 5.027 5.367 1.421 0 2.652-.509 3.267-1.336v1.463c0 1.464-.912 2.44-2.525 2.44-1.442 0-2.439-.679-2.503-1.888h-3.309c.297 2.906 2.546 4.858 5.622 4.858 3.627 0 5.918-2.355 5.918-6.088v-9.928h-2.949l-.17 1.082c-.593-.87-1.845-1.442-3.287-1.442-2.97 0-5.091 2.227-5.091 5.472zm3.309-.084c0-1.528 1.018-2.546 2.312-2.546 1.506 0 2.609.997 2.609 2.546 0 1.548-1.082 2.609-2.588 2.609-1.294 0-2.333-1.06-2.333-2.61zm9.14.254c0 3.351 2.248 5.579 5.642 5.579 3.373 0 5.621-2.228 5.621-5.579 0-3.352-2.248-5.6-5.62-5.6-3.395 0-5.643 2.248-5.643 5.6zm3.288-.021c0-1.591.933-2.652 2.354-2.652 1.4 0 2.334 1.06 2.334 2.652 0 1.612-.934 2.672-2.334 2.672-1.421 0-2.354-1.06-2.354-2.672z" fill="#252525"/></svg>