<svg width="30" height="30" fill="none" xmlns="http://www.w3.org/2000/svg"><path d="M14.982 0c2.074 0 4.023.393 5.846 1.18a15.184 15.184 0 014.774 3.218 15.239 15.239 0 013.218 4.756c.787 1.811 1.18 3.754 1.18 5.828 0 2.074-.393 4.023-1.18 5.846a15.182 15.182 0 01-3.218 4.774 15.182 15.182 0 01-4.774 3.218c-1.823.787-3.772 1.18-5.846 1.18-2.074 0-4.017-.393-5.828-1.18a15.239 15.239 0 01-4.756-3.218 15.184 15.184 0 01-3.218-4.774C.393 19.005 0 17.056 0 14.982c0-2.074.393-4.017 1.18-5.828a15.24 15.24 0 013.218-4.756A15.24 15.24 0 019.154 1.18C10.965.393 12.908 0 14.982 0zm5.65 6.543h-3.183a4.49 4.49 0 00-1.716.322 4.65 4.65 0 00-1.377.858 3.88 3.88 0 00-.911 1.216 3.15 3.15 0 00-.322 1.359v1.895h-2.825v3.719h2.825v7.509h3.754v-7.51h2.79v-3.718h-2.79v-.965a.8.8 0 01.34-.68c.226-.167.423-.25.59-.25h2.825V6.543z" fill="#252525"/></svg>